PathFileType	4	(X/Y/Z)	s09c0102.trc
DataRate	CameraRate	NumFrames	NumMarkers	Units	OrigDataRate	OrigDataStartFrame	OrigNumFrames
200	200	5	50	mm	200	0	2000
Frame#	Time	racr			lacr			c7			jug			rlel			rdr			llel			ldr			s2			lic			ric			lasi			rasi			rpsi			lpsi			rgt			lgt			rth1			rth2			rth3			rth4			rlfc			rmfc			rsh1			rsh2			rsh3			rsh4			rlmal			rmmal			rcal			rtoe			rmt5			lth1			lth2			lth4			lth3			llfc			lmfc			llmal			lmmal			lcal			lmt5			lsh1			lsh2			lsh3			lsh4			ltoe			SBIKE			LBIKE			RBIKE			
		X1	Y1	Z1	X2	Y2	Z2	X3	Y3	Z3	X4	Y4	Z4	X5	Y5	Z5	X6	Y6	Z6	X7	Y7	Z7	X8	Y8	Z8	X9	Y9	Z9	X10	Y10	Z10	X11	Y11	Z11	X12	Y12	Z12	X13	Y13	Z13	X14	Y14	Z14	X15	Y15	Z15	X16	Y16	Z16	X17	Y17	Z17	X18	Y18	Z18	X19	Y19	Z19	X20	Y20	Z20	X21	Y21	Z21	X22	Y22	Z22	X23	Y23	Z23	X24	Y24	Z24	X25	Y25	Z25	X26	Y26	Z26	X27	Y27	Z27	X28	Y28	Z28	X29	Y29	Z29	X30	Y30	Z30	X31	Y31	Z31	X32	Y32	Z32	X33	Y33	Z33	X34	Y34	Z34	X35	Y35	Z35	X36	Y36	Z36	X37	Y37	Z37	X38	Y38	Z38	X39	Y39	Z39	X40	Y40	Z40	X41	Y41	Z41	X42	Y42	Z42	X43	Y43	Z43	X44	Y44	Z44	X45	Y45	Z45	X46	Y46	Z46	X47	Y47	Z47	X48	Y48	Z48	X49	Y49	Z49	X50	Y50	Z50	
0	0.0000	497.524499	1293.553794	-84.747225	513.570003	1281.231563	-407.796304	486.435771	1319.559288	-241.346710	472.649305	1188.379574	-245.784439	523.938909	1056.858060	15.559850	703.552672	882.074752	-37.378927	498.729182	1026.694092	-527.501158	687.105092	877.243227	-449.618879	16.248261	1116.793151	-242.613930	150.739019	1116.177013	-390.568018	161.775686	1121.824679	-95.683721	194.550996	1059.483288	-367.427737	206.602021	1067.437533	-117.060351	45.751713	1147.743912	-183.619550	41.735511	1154.071386	-293.540536	136.972909	975.829741	-51.258913	117.632645	994.307171	-433.604669	230.960705	872.820747	-54.289345	303.972641	824.949142	-63.030417	338.696337	743.051803	-68.710798	326.958640	844.301474	-84.986493	376.837158	643.069282	-101.406845	357.662686	630.449422	-198.535834	287.769741	589.982901	-70.890292	233.528253	518.728826	-85.562535	152.248639	486.072883	-84.410440	248.409917	500.896578	-118.839384	72.472066	424.236349	-86.750600	79.934656	433.691074	-165.029364	-17.409387	427.742226	-125.727865	215.349198	303.148926	-124.744716	134.066880	325.328161	-60.807606	229.566714	914.982493	-434.905429	312.993083	895.652504	-430.317853	330.261369	925.862219	-414.174045	378.635152	833.955979	-429.057959	456.357267	760.365292	-412.429625	477.566137	750.922777	-312.698672	363.877898	406.522989	-408.551827	381.361289	417.893912	-338.004220	291.743830	372.765329	-371.405035	457.568114	321.233541	-433.345720	433.441337	661.620620	-432.272652	434.177709	575.113717	-420.376456	389.909458	498.085798	-417.234964	458.713619	572.356514	-389.642870	549.292617	334.542193	-365.451501	-64.997044	852.592051	-240.486157	21.178759	83.579368	-442.231702	21.286297	83.693568	-43.842490	
1	0.0050	497.559118	1293.511351	-84.728763	513.588555	1281.211184	-407.793040	486.464564	1319.521234	-241.331163	472.666602	1188.350967	-245.745667	523.932300	1056.840639	15.577175	703.573108	882.055791	-37.368538	498.738054	1026.701248	-527.523930	687.110847	877.255336	-449.637178	16.258705	1116.798142	-242.621025	150.761495	1116.176769	-390.568087	161.774629	1121.811961	-95.695057	194.584282	1059.461879	-367.450183	206.589874	1067.405862	-117.027255	45.754057	1147.763733	-183.597173	41.759308	1154.085933	-293.530288	136.984979	975.811307	-51.259435	117.644804	994.312117	-433.603355	230.972506	872.794278	-54.279335	303.962847	824.924297	-63.032428	338.683814	743.022952	-68.731663	326.964119	844.268236	-85.003563	376.806804	643.066145	-101.418579	357.632224	630.430818	-198.529936	287.776859	589.953101	-70.897350	233.502738	518.713571	-85.560431	152.251572	486.049558	-84.429967	248.426659	500.891628	-118.827349	72.467186	424.217773	-86.761103	79.914550	433.705881	-165.026652	-17.447458	427.727869	-125.749533	215.355220	303.144572	-124.739704	134.076771	325.310727	-60.826844	229.564809	914.995214	-434.923004	313.006725	895.671789	-430.318856	330.248847	925.888543	-414.195382	378.638817	833.974039	-429.061288	456.365910	760.391647	-412.435621	477.588712	750.947270	-312.689789	363.893280	406.535286	-408.552905	381.372572	417.902014	-338.026534	291.764108	372.787396	-371.388672	457.563137	321.230771	-433.342302	433.450249	661.646620	-432.273246	434.183703	575.135418	-420.389923	389.913693	498.114866	-417.227756	458.722277	572.348964	-389.634027	549.310808	334.540296	-365.453891	-64.995437	852.593855	-240.499114	21.197004	83.570563	-442.224892	21.298636	83.695353	-43.831396	
2	0.0100	497.587330	1293.474400	-84.710960	513.630422	1281.214364	-407.789893	486.483496	1319.528901	-241.342345	472.719686	1188.345384	-245.729460	523.928260	1056.813564	15.589311	703.561931	882.053488	-37.360587	499.146831	1027.129523	-528.395318	687.119688	877.259261	-449.628053	16.296613	1116.819624	-242.621993	150.782543	1116.156005	-390.573975	161.818308	1121.806084	-95.703616	194.617099	1059.446687	-367.477342	206.624386	1067.384686	-117.055476	45.769357	1147.777413	-183.592898	41.791634	1154.078105	-293.537626	136.992677	975.813184	-51.267088	117.660903	994.327453	-433.595619	230.947858	872.794104	-54.274842	303.952590	824.910754	-63.028874	338.684637	743.011724	-68.730457	326.966996	844.257661	-85.011542	376.784440	643.035435	-101.423391	357.616592	630.429610	-198.553767	287.712984	589.871984	-70.957634	233.495401	518.695868	-85.562202	152.241063	486.018423	-84.433851	248.390634	500.894129	-118.828144	72.453112	424.207897	-86.755260	79.886858	433.685369	-165.013774	-17.465251	427.697890	-125.739677	215.344676	303.130991	-124.755243	134.062903	325.304376	-60.813382	229.578222	915.004887	-434.908454	313.016123	895.682291	-430.316915	330.255728	925.890713	-414.178839	378.650509	833.989044	-429.065671	456.376784	760.419702	-412.446044	477.607798	750.968727	-312.703273	363.899105	406.562883	-408.548439	381.410154	417.948432	-338.011394	291.766974	372.819568	-371.385744	457.568702	321.254948	-433.353851	433.468427	661.672211	-432.294399	434.199203	575.163134	-420.387157	389.945466	498.129627	-417.232302	458.725561	572.388170	-389.653086	549.314144	334.520869	-365.432699	-64.998208	852.593325	-240.489899	21.208676	83.699052	-442.122725	21.298035	83.693209	-43.842730	
3	0.0150	497.615279	1293.458662	-84.706293	513.442682	1281.147339	-407.793846	486.510509	1319.515218	-241.348089	472.775395	1188.340837	-245.744518	524.084731	1056.544710	15.801300	703.381497	881.335153	-37.845107	499.085157	1026.440867	-526.988024	687.114812	877.265045	-449.634966	17.168123	1116.997558	-241.029294	150.832830	1116.159890	-390.584249	161.322450	1121.753635	-96.460548	194.676181	1059.414739	-367.460770	206.630774	1067.353968	-117.033968	46.171131	1147.643578	-183.376321	42.188735	1153.918764	-293.318102	137.198410	975.734773	-51.078319	117.674792	994.330113	-433.607818	230.991869	872.859567	-54.138919	303.860367	824.974104	-63.060946	338.656622	743.010076	-68.730328	326.729777	843.726317	-85.535959	376.776225	643.023850	-101.417737	357.604988	630.426939	-198.546220	287.645407	589.819267	-71.009091	234.607034	518.623015	-84.922761	152.170159	485.984088	-84.359997	251.137991	503.022085	-117.410090	72.188397	423.890696	-87.069927	79.847001	433.680474	-165.004633	-17.782916	428.127431	-125.736447	215.349119	303.145453	-124.726772	134.052487	325.285780	-60.818588	229.598864	915.012677	-434.889773	313.022104	895.697001	-430.316603	330.044915	926.229225	-413.993914	378.649124	833.996639	-429.053023	456.368535	760.691893	-412.249738	477.612434	750.975687	-312.731938	363.639710	407.056903	-408.741687	382.277635	417.954753	-338.876622	291.774165	372.842994	-371.406293	457.593593	321.267514	-433.342530	433.478375	661.679905	-432.292971	434.427639	574.901467	-420.242265	389.952735	498.156745	-417.238149	458.756004	572.209566	-389.451610	549.318066	334.546380	-365.448494	-64.984870	852.586562	-240.484044	21.212634	83.570271	-442.222129	21.297120	83.685048	-43.830141	
4	0.0200	497.285604	1294.007319	-85.089098	513.346176	1281.502582	-407.785174	486.986728	1319.543107	-241.559306	472.793080	1188.327563	-245.728925	523.193701	1057.060526	15.715797	703.366484	882.087884	-37.284557	498.975913	1026.885440	-526.872095	686.834860	877.255363	-449.713589	17.115127	1116.935178	-241.030195	150.810400	1116.309913	-390.584943	161.390877	1121.752023	-96.592558	194.748038	1059.410099	-367.042629	206.368688	1067.674901	-117.268156	46.173642	1147.686453	-183.362398	42.191551	1153.956108	-293.322326	136.806684	976.216356	-50.950995	117.661518	994.587712	-433.413349	230.713984	873.160815	-54.538064	303.681287	825.149271	-63.152631	338.625981	743.495354	-68.886302	326.483594	844.127697	-85.320305	376.531055	643.532800	-101.458413	357.329875	630.854815	-198.267744	287.312888	590.131382	-71.197469	234.098856	519.402273	-85.001943	152.177793	485.825181	-84.301353	250.841157	503.234883	-117.530191	72.209191	424.342209	-86.917836	78.408273	434.813932	-165.106876	-17.603045	428.040123	-125.645524	215.469793	303.617748	-124.500216	134.016886	325.398334	-60.472580	229.596133	915.028057	-434.890173	312.826012	895.982671	-430.393550	329.972389	926.242305	-414.134362	378.572446	834.017899	-429.222575	456.300386	760.705014	-412.339858	478.238666	751.597307	-312.025960	363.553688	407.030704	-408.748950	382.038362	418.388418	-339.080896	291.566864	373.106881	-371.629874	457.366339	321.698347	-433.603367	433.436714	661.850269	-432.225854	434.374742	575.161865	-420.201619	389.839682	498.373419	-417.253747	458.672421	572.670531	-389.706937	549.295419	334.678263	-365.320459	-65.009540	852.593193	-240.494854	21.028655	83.908875	-442.384683	21.276672	83.910893	-43.950140	
